<?xml version="1.0" encoding="UTF-8" standalone="no"?>
<!-- Generator: Adobe Illustrator 24.1.2, SVG Export Plug-In . SVG Version: 6.00 Build 0)  -->

<svg
   version="1.1"
   id="Ebene_1"
   x="0px"
   y="0px"
   viewBox="0 0 116.92912 54.519718"
   xml:space="preserve"
   sodipodi:docname="HM_Logo_rot_RGB.svg"
   width="116.92912"
   height="54.519718"
   inkscape:version="1.1 (c68e22c387, 2021-05-23)"
   xmlns:inkscape="http://www.inkscape.org/namespaces/inkscape"
   xmlns:sodipodi="http://sodipodi.sourceforge.net/DTD/sodipodi-0.dtd"
   xmlns="http://www.w3.org/2000/svg"
   xmlns:svg="http://www.w3.org/2000/svg"><defs
   id="defs15" /><sodipodi:namedview
   id="namedview13"
   pagecolor="#ffffff"
   bordercolor="#666666"
   borderopacity="1.0"
   inkscape:pageshadow="2"
   inkscape:pageopacity="0.0"
   inkscape:pagecheckerboard="0"
   showgrid="false"
   fit-margin-bottom="6"
   fit-margin-top="6"
   fit-margin-left="0"
   fit-margin-right="0"
   inkscape:zoom="8.1699704"
   inkscape:cx="58.445744"
   inkscape:cy="27.233881"
   inkscape:window-width="2560"
   inkscape:window-height="1377"
   inkscape:window-x="-8"
   inkscape:window-y="-8"
   inkscape:window-maximized="1"
   inkscape:current-layer="Ebene_1" />
<style
   type="text/css"
   id="style2">
	.st0{fill:#FC5555;}
</style>
<g
   id="g10"
   transform="translate(-10.629898,-4.629887)">
	
		<rect
   x="108.52544"
   y="12.856152"
   transform="rotate(-18.434967,116.92901,21.259917)"
   class="st0"
   width="16.807381"
   height="16.807381"
   id="rect4" />
	<polygon
   class="st0"
   points="15.75087,10.629921 10.629898,10.629921 10.629898,53.149605 15.75087,53.149605 15.75087,33.676739 40.94191,33.676739 40.94191,53.149605 46.062881,53.149605 46.062881,10.629921 40.94191,10.629921 40.94191,29.388807 15.75087,29.388807 "
   id="polygon6" />
	<polygon
   class="st0"
   points="61.069721,10.629921 53.149605,10.629921 53.149605,53.149605 58.032684,53.149605 58.032684,15.870908 58.151703,15.870908 72.295921,53.149605 76.462982,53.149605 90.608231,15.870908 90.727257,15.870908 90.727257,53.149605 95.669289,53.149605 95.669289,10.629921 88.047218,10.629921 74.616943,46.479675 74.499931,46.479675 "
   id="polygon8" />
</g>
</svg>
