<?xml version="1.0" encoding="UTF-8"?>
<!-- Generator: Adobe Illustrator 24.1.2, SVG Export Plug-In . SVG Version: 6.00 Build 0)  -->
<svg version="1.1" id="Ebene_1" xmlns="http://www.w3.org/2000/svg" xmlns:xlink="http://www.w3.org/1999/xlink" x="0px" y="0px" viewBox="0 0 233.858261 63.779526" style="enable-background:new 0 0 233.858261 63.779526;" xml:space="preserve">
<style type="text/css">
	.st0{fill:#FC5555;}
</style>
<g>
	<g>
		
			<rect x="108.525444" y="12.856152" transform="matrix(0.948683 -0.316228 0.316228 0.948683 -0.722535 38.067223)" class="st0" width="16.807381" height="16.807381"/>
		<polygon class="st0" points="40.94191,29.388807 15.75087,29.388807 15.75087,10.629921 10.629898,10.629921 10.629898,53.149605     15.75087,53.149605 15.75087,33.676739 40.94191,33.676739 40.94191,53.149605 46.062881,53.149605 46.062881,10.629921     40.94191,10.629921   "/>
		<polygon class="st0" points="74.616943,46.479675 74.499931,46.479675 61.069721,10.629921 53.149605,10.629921     53.149605,53.149605 58.032684,53.149605 58.032684,15.870908 58.151703,15.870908 72.295921,53.149605 76.462982,53.149605     90.608231,15.870908 90.727257,15.870908 90.727257,53.149605 95.669289,53.149605 95.669289,10.629921 88.047157,10.629921   "/>
	</g>
	<g>
		<rect x="158.985306" y="45.353088" class="st0" width="0.878052" height="7.786011"/>
		<rect x="161.851334" y="47.818054" class="st0" width="0.877991" height="5.321045"/>
		<rect x="161.788345" y="45.639099" class="st0" width="0.994019" height="1.067993"/>
		<path class="st0" d="M155.018326,47.691101c-0.919983,0-1.554993,0.560974-1.797974,1.099976v-0.973022h-0.846008v7.204041    h0.877991v-2.814026c0.263977,0.540039,0.888,1.058044,1.765991,1.058044c1.354004,0,2.369995-1.100037,2.369995-2.782043    C157.388321,48.791077,156.37233,47.691101,155.018326,47.691101z M154.83931,52.578064    c-1.036987,0-1.628967-0.824951-1.628967-2.031006v-0.147949c0-1.206055,0.59198-2.02002,1.628967-2.02002    c1.046997,0,1.660034,0.856995,1.660034,2.10498C156.499344,51.722107,155.886307,52.578064,154.83931,52.578064z"/>
		<path class="st0" d="M140.442337,45.58606l-3.057007,7.55304h0.910034l0.835999-2.105042h3.616943l0.83606,2.105042h0.951965    l-3.067993-7.55304H140.442337z M139.427322,50.283081l1.502014-3.786987h0.031982l1.491028,3.786987H139.427322z"/>
		<path class="st0" d="M166.833328,47.691101c-1.416992,0-2.507019,1.078979-2.507019,2.813965    c0,1.713989,1.058044,2.761047,2.559998,2.761047c1.037048,0,1.957031-0.561035,2.200012-1.693054h-0.825012    c-0.221985,0.645996-0.655945,0.995056-1.375,0.995056c-1.014954,0-1.66095-0.677002-1.702942-1.904053h3.934998v-0.348999    C169.118362,48.950073,168.409317,47.691101,166.833328,47.691101z M165.215347,50.029114    c0.14801-1.090027,0.782959-1.629028,1.617981-1.629028c0.952026,0,1.406982,0.708984,1.427979,1.629028H165.215347z"/>
		<path class="st0" d="M148.407364,47.691101c-0.920044,0-1.555054,0.560974-1.798035,1.099976v-0.973022h-0.846008v7.204041    h0.877991v-2.814026c0.264038,0.540039,0.888,1.058044,1.766052,1.058044c1.353943,0,2.369995-1.100037,2.369995-2.782043    C150.777359,48.791077,149.761307,47.691101,148.407364,47.691101z M148.228348,52.578064    c-1.036987,0-1.629028-0.824951-1.629028-2.031006v-0.147949c0-1.206055,0.592041-2.02002,1.629028-2.02002    c1.046997,0,1.659973,0.856995,1.659973,2.10498C149.888321,51.722107,149.275345,52.578064,148.228348,52.578064z"/>
		<path class="st0" d="M209.552322,48.400085c0.718994,0,1.153015,0.390991,1.301025,1.099976h0.834961    c-0.168945-1.131958-0.951965-1.80896-2.135986-1.80896c-1.480957,0-2.506958,1.089966-2.506958,2.792969    s1.026001,2.782043,2.506958,2.782043c1.184021,0,1.967041-0.666016,2.135986-1.809021h-0.834961    c-0.14801,0.708984-0.582031,1.099976-1.301025,1.099976c-1.047974,0-1.639954-0.825012-1.639954-2.072998    S208.504349,48.400085,209.552322,48.400085z"/>
		<path class="st0" d="M174.470352,48.760071c-0.243042-0.539978-0.846008-1.06897-1.765991-1.06897    c-1.354004,0-2.369995,1.099976-2.369995,2.792969c0,1.682007,1.015991,2.782043,2.369995,2.782043    c0.877991,0,1.533997-0.518005,1.797974-1.058044v0.93103h0.846008v-7.786011h-0.877991V48.760071z M174.513321,50.547058    c0,1.206055-0.592957,2.031006-1.628967,2.031006c-1.048035,0-1.661011-0.855957-1.661011-2.093994    c0-1.247986,0.612976-2.10498,1.661011-2.10498c1.036011,0,1.628967,0.813965,1.628967,2.02002V50.547058z"/>
		<path class="st0" d="M197.134354,47.691101c-1.41803,0-2.507019,1.078979-2.507019,2.813965    c0,1.713989,1.057007,2.761047,2.559021,2.761047c1.036987,0,1.95697-0.561035,2.200989-1.693054h-0.825012    c-0.223022,0.645996-0.656006,0.995056-1.375977,0.995056c-1.015015,0-1.660034-0.677002-1.703003-1.904053h3.934998v-0.348999    C199.41835,48.950073,198.710342,47.691101,197.134354,47.691101z M195.515335,50.029114    c0.14801-1.090027,0.78302-1.629028,1.619019-1.629028c0.951965,0,1.406006,0.708984,1.427979,1.629028H195.515335z"/>
		<path class="st0" d="M221.853348,50.198059l-1.057983-0.200989c-0.613037-0.115967-0.930054-0.307007-0.930054-0.760986    c0-0.518982,0.454041-0.867981,1.163025-0.867981c0.72998,0,1.205994,0.317993,1.268982,0.856995h0.815002    c-0.105957-1.005005-0.856995-1.533997-2.083984-1.533997c-1.174011,0-1.977966,0.697998-1.977966,1.597961    c0,0.929993,0.623962,1.278992,1.480957,1.438049l0.94104,0.190979c0.677002,0.127014,0.930969,0.380005,0.930969,0.771973    c0,0.571045-0.528992,0.910034-1.258972,0.910034c-0.718994,0-1.395996-0.307007-1.459045-1.036987h-0.846985    c0.096008,1.141968,1.048035,1.703003,2.317017,1.703003c1.195007,0,2.072998-0.688049,2.072998-1.619019    C223.228348,50.791077,222.721329,50.367065,221.853348,50.198059z"/>
		<path class="st0" d="M215.359329,47.691101c-1.417969,0-2.507019,1.078979-2.507019,2.813965    c0,1.713989,1.057007,2.761047,2.559021,2.761047c1.036987,0,1.957031-0.561035,2.200989-1.693054h-0.824951    c-0.223022,0.645996-0.656006,0.995056-1.376038,0.995056c-1.015015,0-1.659973-0.677002-1.703003-1.904053h3.934998v-0.348999    C217.643326,48.950073,216.935318,47.691101,215.359329,47.691101z M213.740311,50.029114    c0.14801-1.090027,0.78302-1.629028,1.619019-1.629028c0.952026,0,1.406006,0.708984,1.42804,1.629028H213.740311z"/>
		<path class="st0" d="M203.596329,47.691101c-0.813965,0-1.47998,0.44397-1.734009,1.099976v-0.973022h-0.846985v5.321045h0.877991    v-2.929993c0-1.280029,0.645996-1.798035,1.460022-1.798035c0.835999,0,1.27002,0.507019,1.27002,1.491028v3.237h0.876953    v-3.427002C205.50032,48.442078,204.792313,47.691101,203.596329,47.691101z"/>
		<rect x="192.152359" y="47.818054" class="st0" width="0.877991" height="5.321045"/>
		<path class="st0" d="M188.460342,48.400085c0.718994,0,1.153015,0.390991,1.300964,1.099976h0.83606    c-0.169006-1.131958-0.952026-1.80896-2.137024-1.80896c-1.481018,0-2.507019,1.089966-2.507019,2.792969    s1.026001,2.782043,2.507019,2.782043c1.184998,0,1.968018-0.666016,2.137024-1.809021h-0.83606    c-0.147949,0.708984-0.58197,1.099976-1.300964,1.099976c-1.046997,0-1.638977-0.825012-1.638977-2.072998    S187.413345,48.400085,188.460342,48.400085z"/>
		<path class="st0" d="M182.791336,49.098083l-1.481018-0.307007c-0.920959-0.179016-1.343994-0.44397-1.343994-1.195007    c0-0.792969,0.656006-1.406982,1.756042-1.406982c1.078979,0,1.819946,0.487,1.945984,1.333008h0.877991    c-0.14801-1.36499-1.216003-2.062988-2.833984-2.062988c-1.56604,0-2.634033,0.930969-2.634033,2.169006    c0,1.300964,0.908997,1.765991,1.924988,1.95697l1.438049,0.284973c1.026978,0.19104,1.375977,0.603027,1.375977,1.238037    c0,0.909973-0.794006,1.427979-1.872986,1.427979c-1.121033,0-2.11499-0.412964-2.231995-1.628967h-0.877991    c0.105957,1.649963,1.480957,2.359009,3.120972,2.359009c1.596985,0,2.73999-0.910034,2.73999-2.200012    C184.695328,49.870056,183.954361,49.331055,182.791336,49.098083z"/>
		<rect x="192.088333" y="45.639099" class="st0" width="0.994019" height="1.067993"/>
		<rect x="152.469254" y="34.066467" class="st0" width="0.993958" height="1.067993"/>
		<path class="st0" d="M141.130203,41.692505c1.946045,0,3.057007-1.142029,3.057007-3.205017v-4.474976h-0.909973v4.527954    c0,1.608032-0.814026,2.380005-2.147034,2.380005c-1.32196,0-2.146973-0.771973-2.146973-2.380005v-4.527954h-0.910034v4.453979    C138.073196,40.550476,139.205215,41.692505,141.130203,41.692505z"/>
		<path class="st0" d="M172.99025,36.794495c0.729004,0,1.204956,0.317993,1.268982,0.856995h0.813965    c-0.10498-1.005005-0.855957-1.533997-2.082947-1.533997c-1.175049,0-1.978027,0.698975-1.978027,1.598022    c0,0.930969,0.624023,1.279968,1.47998,1.437988l0.942017,0.190979c0.677002,0.127014,0.93103,0.380981,0.93103,0.772034    c0,0.570984-0.529053,0.909973-1.259033,0.909973c-0.718994,0-1.395996-0.307007-1.459961-1.036987h-0.846008    c0.094971,1.143005,1.046997,1.703003,2.316956,1.703003c1.195007,0,2.072998-0.687012,2.072998-1.618042    c0-0.856995-0.507996-1.279968-1.375-1.448975l-1.057983-0.200989c-0.614014-0.117004-0.930969-0.307007-0.930969-0.762024    C171.826248,37.14447,172.281204,36.794495,172.99025,36.794495z"/>
		<path class="st0" d="M150.597244,41.565491v-3.427002c0-1.268982-0.709045-2.020996-1.903992-2.020996    c-0.814026,0-1.481018,0.445007-1.735046,1.101013v-0.973999h-0.846008v5.320984h0.878052v-2.929993    c0-1.280029,0.644958-1.798035,1.459961-1.798035c0.835022,0,1.269043,0.507996,1.269043,1.491028v3.237H150.597244z"/>
		<rect x="152.533218" y="36.244507" class="st0" width="0.877991" height="5.320984"/>
		<rect x="176.819229" y="36.244507" class="st0" width="0.877991" height="5.320984"/>
		<rect x="176.755203" y="34.066467" class="st0" width="0.994019" height="1.067993"/>
		<path class="st0" d="M167.923233,37.503479v-1.258972h-0.846008v5.320984h0.877991v-2.622986    c0-1.343994,0.772034-2.01001,1.617981-2.01001c0.138,0,0.328003,0.010986,0.455017,0.041992v-0.804016    c-0.127014-0.031006-0.274963-0.041992-0.412964-0.041992C168.833206,36.128479,168.156204,36.625488,167.923233,37.503479z"/>
		<path class="st0" d="M188.189224,36.244507h-0.908997l-1.596985,4.347961h-0.022034l-1.691956-4.347961h-0.920044    l2.136047,5.363953c-0.34906,0.899048-0.592041,1.195007-1.121033,1.195007c-0.137024,0-0.253967,0-0.422974-0.041992v0.718994    c0.169006,0.032043,0.369995,0.05304,0.518005,0.05304c0.972961-0.011047,1.396973-0.540039,1.882996-1.809021    L188.189224,36.244507z"/>
		<path class="st0" d="M181.229202,41.650513c0.233032,0,0.540039-0.032043,0.93103-0.14801v-0.720032    c-0.338013,0.106018-0.570984,0.127014-0.772034,0.127014c-0.485962,0-0.771973-0.190002-0.771973-0.750977v-3.247009h1.406982    v-0.666992h-1.395996v-1.354004h-0.867981v1.354004h-0.78302v0.666992h0.78302v3.289978    C179.759232,41.184509,180.256241,41.650513,181.229202,41.650513z"/>
		<path class="st0" d="M197.874222,35.250488v0.994019h-0.771973v0.666992h0.771973v4.653992h0.867981v-4.653992h1.142029v-0.666992    h-1.142029v-0.983032c0-0.602966,0.348999-0.794006,0.729004-0.794006c0.19104,0,0.402039,0.011047,0.540039,0.032043v-0.697998    c-0.158997-0.032043-0.402039-0.05304-0.592041-0.05304C198.509232,33.748474,197.874222,34.25647,197.874222,35.250488z"/>
		<path class="st0" d="M196.140213,38.910461c0-1.713989-1.057983-2.792969-2.528992-2.792969    c-1.469971,0-2.528015,1.078979-2.528015,2.792969c0,1.71405,1.058044,2.782043,2.528015,2.782043    C195.08223,41.692505,196.140213,40.624512,196.140213,38.910461z M193.611221,40.983459    c-1.036011,0-1.659973-0.792969-1.659973-2.072998c0-1.279968,0.623962-2.083984,1.659973-2.083984    c1.036987,0,1.661011,0.804016,1.661011,2.083984C195.272232,40.190491,194.648209,40.983459,193.611221,40.983459z"/>
		<path class="st0" d="M165.448196,40.000488h-0.824951c-0.222046,0.64502-0.656006,0.994019-1.375,0.994019    c-1.015991,0-1.661011-0.677002-1.703003-1.903992h3.934998v-0.348999c0-1.365051-0.708984-2.624023-2.285034-2.624023    c-1.417969,0-2.506958,1.078979-2.506958,2.813965c0,1.71405,1.057983,2.761047,2.559998,2.761047    C164.284256,41.692505,165.205215,41.132507,165.448196,40.000488z M163.195206,36.826477    c0.952026,0,1.407043,0.708984,1.42804,1.629028h-3.046997C161.724197,37.366516,162.359207,36.826477,163.195206,36.826477z"/>
		<polygon class="st0" points="157.388199,40.698486 157.367203,40.698486 155.653214,36.244507 154.754227,36.244507     156.880203,41.565491 157.864212,41.565491 159.905228,36.244507 159.027237,36.244507   "/>
		<rect x="150.364761" y="22.492371" class="st0" width="0.898987" height="1.067993"/>
		<rect x="148.439713" y="22.492371" class="st0" width="0.889038" height="1.067993"/>
		<path class="st0" d="M170.73671,29.992371v-3.427002c0-1.269958-0.707947-2.020996-1.903992-2.020996    c-0.813965,0-1.448975,0.423035-1.703003,1.100037V22.20636h-0.877991v7.786011h0.877991v-2.929993    c0-1.279968,0.645996-1.797974,1.460022-1.797974c0.835999,0,1.268982,0.506958,1.268982,1.490967v3.237H170.73671z"/>
		<path class="st0" d="M154.870743,25.644409v-0.973022h-0.846008v5.320984h0.877991v-2.929993    c0-1.279968,0.64502-1.797974,1.458984-1.797974c0.835999,0,1.27002,0.506958,1.27002,1.490967v3.237h0.877991v-3.427002    c0-1.269958-0.708984-2.020996-1.903992-2.020996C155.790726,24.544373,155.12471,24.988403,154.870743,25.644409z"/>
		<polygon class="st0" points="141.944717,28.807373 141.923721,28.807373 139.596756,22.439392 138.189713,22.439392     138.189713,29.992371 139.056717,29.992371 139.056717,23.370361 139.078751,23.370361 141.53273,29.992371 142.27272,29.992371     144.726761,23.370361 144.747757,23.370361 144.747757,29.992371 145.625748,29.992371 145.625748,22.439392     144.271744,22.439392   "/>
		<path class="st0" d="M162.560745,30.119385c1.184998,0,1.96698-0.666016,2.136963-1.809021h-0.835999    c-0.147949,0.709045-0.58197,1.100037-1.300964,1.100037c-1.046997,0-1.640015-0.825012-1.640015-2.072998    c0-1.248047,0.593018-2.084045,1.640015-2.084045c0.718994,0,1.153015,0.391052,1.300964,1.100037h0.835999    c-0.169983-1.132019-0.951965-1.809021-2.136963-1.809021c-1.481018,0-2.507019,1.090027-2.507019,2.79303    S161.079727,30.119385,162.560745,30.119385z"/>
		<path class="st0" d="M151.14772,27.601379c0,1.280029-0.602966,1.830017-1.406982,1.830017    c-0.835999,0-1.247986-0.518005-1.247986-1.502014v-3.257996h-0.889038v3.427002c0,1.291016,0.677002,2.020996,1.882996,2.020996    c0.804016,0,1.439026-0.422974,1.692017-1.090027v0.963013h0.856995v-5.320984h-0.888V27.601379z"/>
		<path class="st0" d="M176.215714,28.426392c-0.221985,0.645996-0.654968,0.994995-1.375,0.994995    c-1.014954,0-1.659973-0.677002-1.703003-1.903992h3.934998v-0.348999c0-1.36499-0.708984-2.624023-2.284973-2.624023    c-1.416992,0-2.507019,1.079041-2.507019,2.814026c0,1.713989,1.058044,2.760986,2.559998,2.760986    c1.037048,0,1.957031-0.560974,2.200012-1.692993H176.215714z M174.787735,25.253357    c0.952026,0,1.406982,0.709045,1.427979,1.629028h-3.045959C173.317764,25.792358,173.952713,25.253357,174.787735,25.253357z"/>
		<path class="st0" d="M179.547745,27.062378c0-1.279968,0.645996-1.797974,1.460022-1.797974    c0.835999,0,1.268982,0.506958,1.268982,1.490967v3.237h0.877991v-3.427002c0-1.269958-0.708008-2.020996-1.903992-2.020996    c-0.814026,0-1.481018,0.444031-1.734009,1.100037v-0.973022h-0.846985v5.320984h0.877991V27.062378z"/>
		<rect x="189.120743" y="10.633057" class="st0" width="0.877991" height="7.786011"/>
		<path class="st0" d="M177.209732,15.489075c0-1.279968,0.645996-1.797974,1.460022-1.797974    c0.835999,0,1.268982,0.506958,1.268982,1.490967v3.237h0.877991v-3.427002c0-1.269958-0.708008-2.020996-1.903992-2.020996    c-0.814026,0-1.449036,0.423035-1.703003,1.100037v-3.438049h-0.877991v7.786011h0.877991V15.489075z"/>
		<path class="st0" d="M194.155716,18.546082c1.036011,0,1.955994-0.560974,2.200012-1.692993h-0.825012    c-0.222961,0.645996-0.656006,0.994995-1.375,0.994995c-1.015991,0-1.661011-0.677002-1.703003-1.903992h3.934021v-0.348999    c0-1.36499-0.708008-2.624023-2.283997-2.624023c-1.41803,0-2.507019,1.079041-2.507019,2.814026    C191.595718,17.499084,192.653702,18.546082,194.155716,18.546082z M194.102737,13.680115    c0.951965,0,1.406006,0.708984,1.427979,1.628967h-3.046997C192.631729,14.219116,193.266739,13.680115,194.102737,13.680115z"/>
		<path class="st0" d="M184.582718,18.546082c0.804016,0,1.437988-0.422974,1.692017-1.089966v0.962952h0.856995v-5.320984h-0.888    v2.929993c0,1.280029-0.603027,1.830017-1.406982,1.830017c-0.835999,0-1.248047-0.518005-1.248047-1.502014v-3.257996h-0.888977    v3.427002C182.699722,17.816101,183.376724,18.546082,184.582718,18.546082z"/>
		<path class="st0" d="M159.418716,15.489075c0-1.279968,0.64502-1.797974,1.460022-1.797974    c0.834961,0,1.268982,0.506958,1.268982,1.490967v3.237h0.877991v-3.427002c0-1.269958-0.708984-2.020996-1.903992-2.020996    c-0.813965,0-1.448975,0.423035-1.703003,1.100037v-3.438049h-0.877991v7.786011h0.877991V15.489075z"/>
		<path class="st0" d="M154.849747,18.546082c1.18396,0,1.96698-0.666016,2.135986-1.809021h-0.835022    c-0.14801,0.709045-0.58197,1.100037-1.300964,1.100037c-1.048035,0-1.640015-0.825012-1.640015-2.072998    s0.59198-2.083984,1.640015-2.083984c0.718994,0,1.152954,0.390991,1.300964,1.099976h0.835022    c-0.169006-1.132019-0.952026-1.809021-2.135986-1.809021c-1.481018,0-2.507019,1.090027-2.507019,2.79303    S153.368729,18.546082,154.849747,18.546082z"/>
		<polygon class="st0" points="139.099747,14.960083 143.520706,14.960083 143.520706,18.419067 144.43074,18.419067     144.43074,10.866089 143.520706,10.866089 143.520706,14.198059 139.099747,14.198059 139.099747,10.866089 138.189713,10.866089     138.189713,18.419067 139.099747,18.419067   "/>
		<path class="st0" d="M172.640701,18.546082c1.185059,0,1.967041-0.666016,2.137024-1.809021h-0.835999    c-0.14801,0.709045-0.58197,1.100037-1.301025,1.100037c-1.046997,0-1.639954-0.825012-1.639954-2.072998    s0.592957-2.083984,1.639954-2.083984c0.719055,0,1.153015,0.390991,1.301025,1.099976h0.835999    c-0.169983-1.132019-0.951965-1.809021-2.137024-1.809021c-1.480957,0-2.506958,1.090027-2.506958,2.79303    S171.159744,18.546082,172.640701,18.546082z"/>
		<path class="st0" d="M148.597733,18.546082c1.471008,0,2.528015-1.067993,2.528015-2.781982s-1.057007-2.79303-2.528015-2.79303    c-1.470032,0-2.528015,1.079041-2.528015,2.79303S147.127701,18.546082,148.597733,18.546082z M148.597733,13.680115    c1.036987,0,1.661011,0.803955,1.661011,2.083984c0,1.279968-0.624023,2.072998-1.661011,2.072998    c-1.036011,0-1.660034-0.79303-1.660034-2.072998C146.937698,14.48407,147.561722,13.680115,148.597733,13.680115z"/>
		<path class="st0" d="M166.812698,17.880066c-0.719971,0-1.396973-0.307007-1.459961-1.036987h-0.846008    c0.094971,1.142029,1.046997,1.703003,2.315979,1.703003c1.196045,0,2.072998-0.687988,2.072998-1.619019    c0-0.855957-0.506958-1.278992-1.375-1.448975l-1.057007-0.200989c-0.613953-0.116028-0.930969-0.307007-0.930969-0.760986    c0-0.519043,0.455017-0.868042,1.163025-0.868042c0.72998,0,1.205994,0.317993,1.269958,0.856995h0.814026    c-0.106018-1.005005-0.856995-1.533997-2.083984-1.533997c-1.174011,0-1.978027,0.697998-1.978027,1.598022    c0,0.929993,0.624023,1.278992,1.481018,1.437988l0.941956,0.190979c0.677002,0.127014,0.930054,0.380005,0.930054,0.772034    C168.070755,17.541077,167.54274,17.880066,166.812698,17.880066z"/>
	</g>
</g>
</svg>