<?xml version="1.0" encoding="iso-8859-1"?>
<!-- Generator: Adobe Illustrator 24.3.0, SVG Export Plug-In . SVG Version: 6.00 Build 0)  -->
<svg version="1.1" id="Ebene_1" xmlns="http://www.w3.org/2000/svg" xmlns:xlink="http://www.w3.org/1999/xlink" x="0px" y="0px"
	 viewBox="0 0 233.8582611 63.7795258" style="enable-background:new 0 0 233.8582611 63.7795258;" xml:space="preserve">
<g>
	<g>
		
			<rect x="108.525444" y="12.8561516" transform="matrix(0.9486833 -0.3162278 0.3162278 0.9486833 -0.7225351 38.0672226)" style="fill:#FC5555;" width="16.8073807" height="16.8073807"/>
		<polygon style="fill:#FC5555;" points="40.9419098,29.3888073 15.7508698,29.3888073 15.7508698,10.629921 10.6298981,10.629921 
			10.6298981,53.1496048 15.7508698,53.1496048 15.7508698,33.6767387 40.9419098,33.6767387 40.9419098,53.1496048 
			46.0628815,53.1496048 46.0628815,10.629921 40.9419098,10.629921 		"/>
		<polygon style="fill:#FC5555;" points="74.6169434,46.4796753 74.4999313,46.4796753 61.0697212,10.629921 53.1496048,10.629921 
			53.1496048,53.1496048 58.0326843,53.1496048 58.0326843,15.8709078 58.1517029,15.8709078 72.2959213,53.1496048 
			76.4629822,53.1496048 90.6082306,15.8709078 90.7272568,15.8709078 90.7272568,53.1496048 95.6692886,53.1496048 
			95.6692886,10.629921 88.0471573,10.629921 		"/>
	</g>
	<g>
		<polygon style="fill:#FC5555;" points="158.9853058,53.1390991 159.8633575,53.1390991 159.8633575,45.3530884 
			158.9853058,45.3530884 158.9853058,47.3944206 		"/>
		<polygon style="fill:#FC5555;" points="161.8513336,53.1390991 162.7293243,53.1390991 162.7293243,51.180954 
			162.7293243,47.8180542 161.8513336,47.8180542 		"/>
		<polygon style="fill:#FC5555;" points="161.7883453,46.7070923 162.7823639,46.7070923 162.7823639,45.6390991 
			161.7883453,45.6390991 161.7883453,46.1730957 		"/>
		<path style="fill:#FC5555;" d="M155.0183258,47.6911011c-0.9199829,0-1.5549927,0.5609741-1.7979736,1.0999756v-0.9730225
			h-0.8460083v7.2040405h0.8779907v-2.8140259c0.2639771,0.5400391,0.8880005,1.0580444,1.7659912,1.0580444
			c1.3540039,0,2.3699951-1.1000366,2.3699951-2.7820435C157.3883209,48.7910767,156.3723297,47.6911011,155.0183258,47.6911011z
			 M154.8393097,52.578064c-1.0369873,0-1.6289673-0.8249512-1.6289673-2.0310059v-0.1479492
			c0-1.2060547,0.59198-2.0200195,1.6289673-2.0200195c1.0469971,0,1.6600342,0.8569946,1.6600342,2.1049805
			C156.4993439,51.7221069,155.8863068,52.578064,154.8393097,52.578064z"/>
		<path style="fill:#FC5555;" d="M140.442337,45.5860596l-3.0570068,7.5530396h0.9100342l0.8359985-2.1050415h3.6169434
			l0.8360596,2.1050415h0.9519653l-3.0679932-7.5530396H140.442337z M139.4273224,50.2830811l1.5020142-3.7869873h0.0319824
			l1.4910278,3.7869873H139.4273224z"/>
		<path style="fill:#FC5555;" d="M166.8333282,47.6911011c-1.4169922,0-2.507019,1.0789795-2.507019,2.8139648
			c0,1.7139893,1.0580444,2.7610474,2.5599976,2.7610474c1.0370483,0,1.9570312-0.5610352,2.2000122-1.6930542h-0.8250122
			c-0.2219849,0.6459961-0.6559448,0.9950562-1.375,0.9950562c-1.0149536,0-1.6609497-0.677002-1.7029419-1.9040527h3.9349976
			v-0.348999C169.1183624,48.9500732,168.409317,47.6911011,166.8333282,47.6911011z M165.2153473,50.0291138
			c0.1480103-1.0900269,0.782959-1.6290283,1.617981-1.6290283c0.9520264,0,1.4069824,0.7089844,1.4279785,1.6290283H165.2153473z"
			/>
		<path style="fill:#FC5555;" d="M148.4073639,47.6911011c-0.9200439,0-1.5550537,0.5609741-1.7980347,1.0999756v-0.9730225
			h-0.8460083v7.2040405h0.8779907v-2.8140259c0.2640381,0.5400391,0.8880005,1.0580444,1.7660522,1.0580444
			c1.3539429,0,2.3699951-1.1000366,2.3699951-2.7820435C150.777359,48.7910767,149.7613068,47.6911011,148.4073639,47.6911011z
			 M148.2283478,52.578064c-1.0369873,0-1.6290283-0.8249512-1.6290283-2.0310059v-0.1479492
			c0-1.2060547,0.592041-2.0200195,1.6290283-2.0200195c1.0469971,0,1.6599731,0.8569946,1.6599731,2.1049805
			C149.8883209,51.7221069,149.2753448,52.578064,148.2283478,52.578064z"/>
		<path style="fill:#FC5555;" d="M209.5523224,48.4000854c0.7189941,0,1.1530151,0.3909912,1.3010254,1.0999756h0.8349609
			c-0.1689453-1.131958-0.9519653-1.80896-2.1359863-1.80896c-1.480957,0-2.506958,1.0899658-2.506958,2.7929688
			s1.026001,2.7820435,2.506958,2.7820435c1.184021,0,1.967041-0.6660156,2.1359863-1.809021h-0.8349609
			c-0.1480103,0.7089844-0.5820312,1.0999756-1.3010254,1.0999756c-1.0479736,0-1.6399536-0.8250122-1.6399536-2.072998
			S208.5043488,48.4000854,209.5523224,48.4000854z"/>
		<path style="fill:#FC5555;" d="M174.4703522,48.7600708c-0.243042-0.539978-0.8460083-1.0689697-1.7659912-1.0689697
			c-1.3540039,0-2.3699951,1.0999756-2.3699951,2.7929688c0,1.6820068,1.0159912,2.7820435,2.3699951,2.7820435
			c0.8779907,0,1.5339966-0.5180054,1.7979736-1.0580444v0.9310303h0.8460083v-7.7860107h-0.8779907V48.7600708z
			 M174.5133209,50.5470581c0,1.2060547-0.5929565,2.0310059-1.6289673,2.0310059
			c-1.0480347,0-1.6610107-0.855957-1.6610107-2.0939941c0-1.2479858,0.6129761-2.1049805,1.6610107-2.1049805
			c1.0360107,0,1.6289673,0.8139648,1.6289673,2.0200195V50.5470581z"/>
		<path style="fill:#FC5555;" d="M197.1343536,47.6911011c-1.4180298,0-2.507019,1.0789795-2.507019,2.8139648
			c0,1.7139893,1.0570068,2.7610474,2.559021,2.7610474c1.0369873,0,1.9569702-0.5610352,2.2009888-1.6930542h-0.8250122
			c-0.2230225,0.6459961-0.6560059,0.9950562-1.3759766,0.9950562c-1.0150146,0-1.6600342-0.677002-1.7030029-1.9040527h3.9349976
			v-0.348999C199.4183502,48.9500732,198.7103424,47.6911011,197.1343536,47.6911011z M195.5153351,50.0291138
			c0.1480103-1.0900269,0.78302-1.6290283,1.6190186-1.6290283c0.9519653,0,1.4060059,0.7089844,1.4279785,1.6290283H195.5153351z"
			/>
		<path style="fill:#FC5555;" d="M221.8533478,50.1980591l-1.0579834-0.2009888
			c-0.6130371-0.1159668-0.9300537-0.3070068-0.9300537-0.7609863c0-0.5189819,0.4540405-0.867981,1.1630249-0.867981
			c0.7299805,0,1.2059937,0.3179932,1.2689819,0.8569946h0.8150024c-0.105957-1.0050049-0.8569946-1.5339966-2.0839844-1.5339966
			c-1.1740112,0-1.9779663,0.697998-1.9779663,1.5979614c0,0.9299927,0.6239624,1.2789917,1.480957,1.4380493l0.94104,0.190979
			c0.677002,0.1270142,0.9309692,0.3800049,0.9309692,0.7719727c0,0.5710449-0.5289917,0.9100342-1.2589722,0.9100342
			c-0.7189941,0-1.3959961-0.3070068-1.4590454-1.0369873h-0.8469849c0.0960083,1.1419678,1.0480347,1.7030029,2.3170166,1.7030029
			c1.1950073,0,2.072998-0.6880493,2.072998-1.6190186C223.2283478,50.7910767,222.7213287,50.3670654,221.8533478,50.1980591z"/>
		<path style="fill:#FC5555;" d="M215.3593292,47.6911011c-1.4179688,0-2.507019,1.0789795-2.507019,2.8139648
			c0,1.7139893,1.0570068,2.7610474,2.559021,2.7610474c1.0369873,0,1.9570312-0.5610352,2.2009888-1.6930542h-0.8249512
			c-0.2230225,0.6459961-0.6560059,0.9950562-1.3760376,0.9950562c-1.0150146,0-1.6599731-0.677002-1.7030029-1.9040527h3.9349976
			v-0.348999C217.6433258,48.9500732,216.935318,47.6911011,215.3593292,47.6911011z M213.7403107,50.0291138
			c0.1480103-1.0900269,0.78302-1.6290283,1.6190186-1.6290283c0.9520264,0,1.4060059,0.7089844,1.4280396,1.6290283H213.7403107z"
			/>
		<path style="fill:#FC5555;" d="M203.5963287,47.6911011c-0.8139648,0-1.4799805,0.4439697-1.7340088,1.0999756v-0.9730225
			h-0.8469849v5.3210449h0.8779907v-2.9299927c0-1.2800293,0.6459961-1.7980347,1.460022-1.7980347
			c0.8359985,0,1.2700195,0.507019,1.2700195,1.4910278v3.2369995h0.8769531v-3.427002
			C205.5003204,48.4420776,204.7923126,47.6911011,203.5963287,47.6911011z"/>
		<polygon style="fill:#FC5555;" points="192.152359,53.1390991 193.0303497,53.1390991 193.0303497,49.2460938 
			193.0303497,47.8180542 192.152359,47.8180542 		"/>
		<path style="fill:#FC5555;" d="M188.4603424,48.4000854c0.7189941,0,1.1530151,0.3909912,1.3009644,1.0999756h0.8360596
			c-0.1690063-1.131958-0.9520264-1.80896-2.1370239-1.80896c-1.4810181,0-2.507019,1.0899658-2.507019,2.7929688
			s1.026001,2.7820435,2.507019,2.7820435c1.1849976,0,1.9680176-0.6660156,2.1370239-1.809021h-0.8360596
			c-0.1479492,0.7089844-0.5819702,1.0999756-1.3009644,1.0999756c-1.0469971,0-1.6389771-0.8250122-1.6389771-2.072998
			S187.4133453,48.4000854,188.4603424,48.4000854z"/>
		<path style="fill:#FC5555;" d="M182.7913361,49.0980835l-1.4810181-0.3070068
			c-0.9209595-0.1790161-1.3439941-0.4439697-1.3439941-1.1950073c0-0.7929688,0.6560059-1.4069824,1.7560425-1.4069824
			c1.0789795,0,1.8199463,0.4869995,1.9459839,1.3330078h0.8779907c-0.1480103-1.3649902-1.2160034-2.0629883-2.8339844-2.0629883
			c-1.56604,0-2.6340332,0.9309692-2.6340332,2.1690063c0,1.3009644,0.9089966,1.7659912,1.9249878,1.9569702l1.4380493,0.2849731
			c1.0269775,0.19104,1.3759766,0.6030273,1.3759766,1.2380371c0,0.9099731-0.7940063,1.4279785-1.8729858,1.4279785
			c-1.1210327,0-2.1149902-0.4129639-2.2319946-1.6289673h-0.8779907c0.105957,1.6499634,1.480957,2.3590088,3.1209717,2.3590088
			c1.5969849,0,2.7399902-0.9100342,2.7399902-2.2000122C184.6953278,49.8700562,183.954361,49.3310547,182.7913361,49.0980835z"/>
		<polygon style="fill:#FC5555;" points="192.0883331,46.7070923 193.0823517,46.7070923 193.0823517,45.6390991 
			192.0883331,45.6390991 192.0883331,46.1730957 		"/>
		<polygon style="fill:#FC5555;" points="153.4632111,34.0664673 152.4692535,34.0664673 152.4692535,34.6004639 
			152.4692535,35.1344604 153.4632111,35.1344604 		"/>
		<path style="fill:#FC5555;" d="M141.1302032,41.6925049c1.9460449,0,3.0570068-1.1420288,3.0570068-3.2050171v-4.4749756
			h-0.9099731v4.5279541c0,1.6080322-0.8140259,2.3800049-2.1470337,2.3800049
			c-1.3219604,0-2.1469727-0.7719727-2.1469727-2.3800049v-4.5279541h-0.9100342v4.4539795
			C138.0731964,40.5504761,139.2052155,41.6925049,141.1302032,41.6925049z"/>
		<path style="fill:#FC5555;" d="M172.9902496,36.7944946c0.7290039,0,1.2049561,0.3179932,1.2689819,0.8569946h0.8139648
			c-0.1049805-1.0050049-0.855957-1.5339966-2.0829468-1.5339966c-1.1750488,0-1.9780273,0.6989746-1.9780273,1.5980225
			c0,0.9309692,0.6240234,1.2799683,1.4799805,1.4379883l0.9420166,0.190979
			c0.677002,0.1270142,0.9310303,0.3809814,0.9310303,0.7720337c0,0.5709839-0.5290527,0.9099731-1.2590332,0.9099731
			c-0.7189941,0-1.3959961-0.3070068-1.4599609-1.0369873h-0.8460083c0.0949707,1.1430054,1.0469971,1.7030029,2.3169556,1.7030029
			c1.1950073,0,2.072998-0.6870117,2.072998-1.618042c0-0.8569946-0.5079956-1.2799683-1.375-1.4489746l-1.0579834-0.2009888
			c-0.6140137-0.1170044-0.9309692-0.3070068-0.9309692-0.7620239
			C171.8262482,37.1444702,172.2812042,36.7944946,172.9902496,36.7944946z"/>
		<path style="fill:#FC5555;" d="M150.5972443,41.5654907v-3.427002c0-1.2689819-0.7090454-2.0209961-1.9039917-2.0209961
			c-0.8140259,0-1.4810181,0.4450073-1.7350464,1.1010132v-0.973999h-0.8460083v5.3209839h0.8780518V38.635498
			c0-1.2800293,0.6449585-1.7980347,1.4599609-1.7980347c0.835022,0,1.269043,0.5079956,1.269043,1.4910278v3.2369995H150.5972443z"
			/>
		<polygon style="fill:#FC5555;" points="153.4112091,41.5654907 153.4112091,36.2445068 152.5332184,36.2445068 
			152.5332184,38.4555016 152.5332184,41.5654907 		"/>
		<polygon style="fill:#FC5555;" points="176.8192291,41.5654907 177.6972198,41.5654907 177.6972198,38.4555016 
			177.6972198,36.2445068 176.8192291,36.2445068 		"/>
		<polygon style="fill:#FC5555;" points="176.7552032,35.1344604 177.7492218,35.1344604 177.7492218,34.0664673 
			176.7552032,34.0664673 176.7552032,34.6004639 		"/>
		<path style="fill:#FC5555;" d="M167.923233,37.503479v-1.2589722h-0.8460083v5.3209839h0.8779907v-2.6229858
			c0-1.3439941,0.7720337-2.0100098,1.617981-2.0100098c0.1380005,0,0.3280029,0.0109863,0.4550171,0.0419922v-0.8040161
			c-0.1270142-0.0310059-0.2749634-0.0419922-0.4129639-0.0419922
			C168.8332062,36.128479,168.1562042,36.6254883,167.923233,37.503479z"/>
		<path style="fill:#FC5555;" d="M188.1892242,36.2445068h-0.9089966l-1.5969849,4.3479614h-0.0220337l-1.6919556-4.3479614
			h-0.9200439l2.1360474,5.3639526c-0.3490601,0.8990479-0.592041,1.1950073-1.1210327,1.1950073
			c-0.1370239,0-0.2539673,0-0.4229736-0.0419922v0.7189941c0.1690063,0.0320435,0.3699951,0.0530396,0.5180054,0.0530396
			c0.9729614-0.0110474,1.3969727-0.5400391,1.8829956-1.809021L188.1892242,36.2445068z"/>
		<path style="fill:#FC5555;" d="M181.2292023,41.6505127c0.2330322,0,0.5400391-0.0320435,0.9310303-0.1480103v-0.7200317
			c-0.3380127,0.1060181-0.5709839,0.1270142-0.7720337,0.1270142c-0.4859619,0-0.7719727-0.1900024-0.7719727-0.7509766V36.911499
			h1.4069824v-0.6669922h-1.3959961v-1.3540039h-0.867981v1.3540039h-0.78302v0.6669922h0.78302v3.289978
			C179.7592316,41.1845093,180.2562408,41.6505127,181.2292023,41.6505127z"/>
		<path style="fill:#FC5555;" d="M197.8742218,35.2504883v0.9940186h-0.7719727v0.6669922h0.7719727v4.6539917h0.867981V36.911499
			h1.1420288v-0.6669922h-1.1420288v-0.9830322c0-0.6029663,0.348999-0.7940063,0.7290039-0.7940063
			c0.19104,0,0.4020386,0.0110474,0.5400391,0.0320435v-0.697998c-0.1589966-0.0320435-0.4020386-0.0530396-0.592041-0.0530396
			C198.5092316,33.7484741,197.8742218,34.2564697,197.8742218,35.2504883z"/>
		<path style="fill:#FC5555;" d="M196.140213,38.9104614c0-1.7139893-1.0579834-2.7929688-2.5289917-2.7929688
			c-1.4699707,0-2.5280151,1.0789795-2.5280151,2.7929688c0,1.7140503,1.0580444,2.7820435,2.5280151,2.7820435
			C195.0822296,41.6925049,196.140213,40.6245117,196.140213,38.9104614z M193.6112213,40.9834595
			c-1.0360107,0-1.6599731-0.7929688-1.6599731-2.072998c0-1.2799683,0.6239624-2.0839844,1.6599731-2.0839844
			c1.0369873,0,1.6610107,0.8040161,1.6610107,2.0839844C195.2722321,40.1904907,194.6482086,40.9834595,193.6112213,40.9834595z"/>
		<path style="fill:#FC5555;" d="M165.4481964,40.0004883h-0.8249512c-0.2220459,0.6450195-0.6560059,0.9940186-1.375,0.9940186
			c-1.0159912,0-1.6610107-0.677002-1.7030029-1.9039917h3.9349976v-0.348999c0-1.3650513-0.7089844-2.6240234-2.2850342-2.6240234
			c-1.4179688,0-2.506958,1.0789795-2.506958,2.8139648c0,1.7140503,1.0579834,2.7610474,2.5599976,2.7610474
			C164.284256,41.6925049,165.2052155,41.1325073,165.4481964,40.0004883z M163.1952057,36.8264771
			c0.9520264,0,1.4070435,0.7089844,1.4280396,1.6290283h-3.0469971
			C161.7241974,37.3665161,162.3592072,36.8264771,163.1952057,36.8264771z"/>
		<polygon style="fill:#FC5555;" points="157.3881989,40.6984863 157.3672028,40.6984863 155.6532135,36.2445068 
			154.7542267,36.2445068 156.8802032,41.5654907 157.864212,41.5654907 159.9052277,36.2445068 159.0272369,36.2445068 		"/>
		<polygon style="fill:#FC5555;" points="150.3647614,23.5603638 151.2637482,23.5603638 151.2637482,23.2491131 
			151.2637482,22.4923706 150.3647614,22.4923706 		"/>
		<polygon style="fill:#FC5555;" points="148.4397125,23.5603638 149.3287506,23.5603638 149.3287506,23.0263672 
			149.3287506,22.4923706 148.4397125,22.4923706 		"/>
		<path style="fill:#FC5555;" d="M170.7367096,29.9923706v-3.427002c0-1.2699585-0.7079468-2.0209961-1.9039917-2.0209961
			c-0.8139648,0-1.4489746,0.4230347-1.7030029,1.1000366v-3.4380493h-0.8779907v7.7860107h0.8779907v-2.9299927
			c0-1.2799683,0.6459961-1.7979736,1.460022-1.7979736c0.8359985,0,1.2689819,0.506958,1.2689819,1.4909668v3.2369995H170.7367096z
			"/>
		<path style="fill:#FC5555;" d="M154.8707428,25.6444092v-0.9730225h-0.8460083v5.3209839h0.8779907v-2.9299927
			c0-1.2799683,0.6450195-1.7979736,1.4589844-1.7979736c0.8359985,0,1.2700195,0.506958,1.2700195,1.4909668v3.2369995h0.8779907
			v-3.427002c0-1.2699585-0.7089844-2.0209961-1.9039917-2.0209961
			C155.7907257,24.5443726,155.1247101,24.9884033,154.8707428,25.6444092z"/>
		<polygon style="fill:#FC5555;" points="141.9447174,28.807373 141.9237213,28.807373 139.596756,22.4393921 
			138.1897125,22.4393921 138.1897125,29.9923706 139.0567169,29.9923706 139.0567169,23.3703613 139.0787506,23.3703613 
			141.5327301,29.9923706 142.2727203,29.9923706 144.7267609,23.3703613 144.747757,23.3703613 144.747757,29.9923706 
			145.6257477,29.9923706 145.6257477,22.4393921 144.2717438,22.4393921 		"/>
		<path style="fill:#FC5555;" d="M162.5607452,30.1193848c1.1849976,0,1.96698-0.6660156,2.1369629-1.809021h-0.8359985
			c-0.1479492,0.7090454-0.5819702,1.1000366-1.3009644,1.1000366c-1.0469971,0-1.6400146-0.8250122-1.6400146-2.072998
			c0-1.2480469,0.5930176-2.0840454,1.6400146-2.0840454c0.7189941,0,1.1530151,0.3910522,1.3009644,1.1000366h0.8359985
			c-0.1699829-1.132019-0.9519653-1.809021-2.1369629-1.809021c-1.4810181,0-2.507019,1.0900269-2.507019,2.7930298
			S161.0797272,30.1193848,162.5607452,30.1193848z"/>
		<path style="fill:#FC5555;" d="M151.1477203,27.6013794c0,1.2800293-0.6029663,1.8300171-1.4069824,1.8300171
			c-0.8359985,0-1.2479858-0.5180054-1.2479858-1.5020142v-3.2579956h-0.8890381v3.427002
			c0,1.2910156,0.677002,2.0209961,1.8829956,2.0209961c0.8040161,0,1.4390259-0.4229736,1.6920166-1.0900269v0.9630127h0.8569946
			v-3.1099873v-2.2109966h-0.8880005V27.6013794z"/>
		<path style="fill:#FC5555;" d="M176.2157135,28.4263916c-0.2219849,0.6459961-0.6549683,0.9949951-1.375,0.9949951
			c-1.0149536,0-1.6599731-0.677002-1.7030029-1.9039917h3.9349976v-0.348999c0-1.3649902-0.7089844-2.6240234-2.2849731-2.6240234
			c-1.4169922,0-2.507019,1.0790405-2.507019,2.8140259c0,1.7139893,1.0580444,2.7609863,2.5599976,2.7609863
			c1.0370483,0,1.9570312-0.5609741,2.2000122-1.6929932H176.2157135z M174.787735,25.2533569
			c0.9520264,0,1.4069824,0.7090454,1.4279785,1.6290283h-3.0459595
			C173.3177643,25.7923584,173.952713,25.2533569,174.787735,25.2533569z"/>
		<path style="fill:#FC5555;" d="M179.5477448,27.0623779c0-1.2799683,0.6459961-1.7979736,1.460022-1.7979736
			c0.8359985,0,1.2689819,0.506958,1.2689819,1.4909668v3.2369995h0.8779907v-3.427002
			c0-1.2699585-0.7080078-2.0209961-1.9039917-2.0209961c-0.8140259,0-1.4810181,0.4440308-1.7340088,1.1000366v-0.9730225
			h-0.8469849v5.3209839h0.8779907V27.0623779z"/>
		<polygon style="fill:#FC5555;" points="189.9987335,10.6330566 189.1207428,10.6330566 189.1207428,15.309083 
			189.1207428,18.4190674 189.9987335,18.4190674 		"/>
		<path style="fill:#FC5555;" d="M177.2097321,15.4890747c0-1.2799683,0.6459961-1.7979736,1.460022-1.7979736
			c0.8359985,0,1.2689819,0.506958,1.2689819,1.4909668v3.2369995h0.8779907v-3.427002
			c0-1.2699585-0.7080078-2.0209961-1.9039917-2.0209961c-0.8140259,0-1.4490356,0.4230347-1.7030029,1.1000366v-3.4380493
			h-0.8779907v7.7860107h0.8779907V15.4890747z"/>
		<path style="fill:#FC5555;" d="M194.1557159,18.5460815c1.0360107,0,1.9559937-0.5609741,2.2000122-1.6929932h-0.8250122
			c-0.2229614,0.6459961-0.6560059,0.9949951-1.375,0.9949951c-1.0159912,0-1.6610107-0.677002-1.7030029-1.9039917h3.934021
			v-0.348999c0-1.3649902-0.7080078-2.6240234-2.2839966-2.6240234c-1.4180298,0-2.507019,1.0790405-2.507019,2.8140259
			C191.5957184,17.4990845,192.6537018,18.5460815,194.1557159,18.5460815z M194.1027374,13.6801147
			c0.9519653,0,1.4060059,0.7089844,1.4279785,1.6289673h-3.0469971
			C192.6317291,14.2191162,193.2667389,13.6801147,194.1027374,13.6801147z"/>
		<path style="fill:#FC5555;" d="M184.5827179,18.5460815c0.8040161,0,1.4379883-0.4229736,1.6920166-1.0899658v0.9629517h0.8569946
			v-5.3209839h-0.8880005v2.9299927c0,1.2800293-0.6030273,1.8300171-1.4069824,1.8300171
			c-0.8359985,0-1.2480469-0.5180054-1.2480469-1.5020142v-3.2579956h-0.8889771v3.427002
			C182.6997223,17.8161011,183.3767242,18.5460815,184.5827179,18.5460815z"/>
		<path style="fill:#FC5555;" d="M159.4187164,15.4890747c0-1.2799683,0.6450195-1.7979736,1.460022-1.7979736
			c0.8349609,0,1.2689819,0.506958,1.2689819,1.4909668v3.2369995h0.8779907v-3.427002
			c0-1.2699585-0.7089844-2.0209961-1.9039917-2.0209961c-0.8139648,0-1.4489746,0.4230347-1.7030029,1.1000366v-3.4380493
			h-0.8779907v7.7860107h0.8779907V15.4890747z"/>
		<path style="fill:#FC5555;" d="M154.8497467,18.5460815c1.18396,0,1.96698-0.6660156,2.1359863-1.809021h-0.835022
			c-0.1480103,0.7090454-0.5819702,1.1000366-1.3009644,1.1000366c-1.0480347,0-1.6400146-0.8250122-1.6400146-2.072998
			s0.59198-2.0839844,1.6400146-2.0839844c0.7189941,0,1.1529541,0.3909912,1.3009644,1.0999756h0.835022
			c-0.1690063-1.132019-0.9520264-1.809021-2.1359863-1.809021c-1.4810181,0-2.507019,1.0900269-2.507019,2.7930298
			S153.3687286,18.5460815,154.8497467,18.5460815z"/>
		<polygon style="fill:#FC5555;" points="139.0997467,14.960083 143.5207062,14.960083 143.5207062,18.4190674 
			144.4307404,18.4190674 144.4307404,10.8660889 143.5207062,10.8660889 143.5207062,14.1980591 139.0997467,14.1980591 
			139.0997467,10.8660889 138.1897125,10.8660889 138.1897125,18.4190674 139.0997467,18.4190674 		"/>
		<path style="fill:#FC5555;" d="M172.6407013,18.5460815c1.1850586,0,1.967041-0.6660156,2.1370239-1.809021h-0.8359985
			c-0.1480103,0.7090454-0.5819702,1.1000366-1.3010254,1.1000366c-1.0469971,0-1.6399536-0.8250122-1.6399536-2.072998
			s0.5929565-2.0839844,1.6399536-2.0839844c0.7190552,0,1.1530151,0.3909912,1.3010254,1.0999756h0.8359985
			c-0.1699829-1.132019-0.9519653-1.809021-2.1370239-1.809021c-1.480957,0-2.506958,1.0900269-2.506958,2.7930298
			S171.1597443,18.5460815,172.6407013,18.5460815z"/>
		<path style="fill:#FC5555;" d="M148.5977325,18.5460815c1.4710083,0,2.5280151-1.0679932,2.5280151-2.7819824
			s-1.0570068-2.7930298-2.5280151-2.7930298c-1.4700317,0-2.5280151,1.0790405-2.5280151,2.7930298
			S147.1277008,18.5460815,148.5977325,18.5460815z M148.5977325,13.6801147c1.0369873,0,1.6610107,0.8039551,1.6610107,2.0839844
			c0,1.2799683-0.6240234,2.072998-1.6610107,2.072998c-1.0360107,0-1.6600342-0.7930298-1.6600342-2.072998
			C146.9376984,14.4840698,147.5617218,13.6801147,148.5977325,13.6801147z"/>
		<path style="fill:#FC5555;" d="M166.8126984,17.8800659c-0.7199707,0-1.3969727-0.3070068-1.4599609-1.0369873h-0.8460083
			c0.0949707,1.1420288,1.0469971,1.7030029,2.315979,1.7030029c1.1960449,0,2.072998-0.6879883,2.072998-1.6190186
			c0-0.855957-0.506958-1.2789917-1.375-1.4489746l-1.0570068-0.2009888
			c-0.6139526-0.1160278-0.9309692-0.3070068-0.9309692-0.7609863c0-0.519043,0.4550171-0.868042,1.1630249-0.868042
			c0.7299805,0,1.2059937,0.3179932,1.2699585,0.8569946h0.8140259c-0.1060181-1.0050049-0.8569946-1.5339966-2.0839844-1.5339966
			c-1.1740112,0-1.9780273,0.697998-1.9780273,1.5980225c0,0.9299927,0.6240234,1.2789917,1.4810181,1.4379883l0.9419556,0.190979
			c0.677002,0.1270142,0.9300537,0.3800049,0.9300537,0.7720337
			C168.070755,17.5410767,167.5427399,17.8800659,166.8126984,17.8800659z"/>
	</g>
</g>
</svg>
